<svg xmlns="http://www.w3.org/2000/svg" width="456" height="108" fill="none"><path fill="#000" d="M58.375 105.125v-2.875H55.5v-2.875h5.75v2.875h8.625V96.5H61.25v-2.875h8.625v-5.75H61.25v2.875H55.5v-2.875h2.875V85H72.75v2.875h2.875v5.75H72.75V96.5h2.875v5.75H72.75v2.875H58.375Zm20.125 0V90.75h2.875v-2.875h2.875V85h8.625v2.875h2.875v2.875h2.875v14.375h-5.75v-5.75H84.25v5.75H78.5Zm5.75-8.625h8.625v-5.75H90v-2.875h-2.875v2.875H84.25v5.75Zm25.875-5.75H113v2.875h2.875V96.5h2.875v5.75h2.875v2.875h-5.75v-2.875H113V96.5h-5.75v8.625h-5.75V85h5.75v8.625h2.875V90.75Zm11.5-5.75v2.875h-2.875v2.875H113v-2.875h2.875V85h5.75Zm2.875 20.125V85h17.25v2.875h2.875V96.5h-2.875v2.875h-11.5v5.75h-5.75Zm5.75-8.625h8.625v-8.625h-8.625V96.5Zm17.25 8.625V85h5.75v5.75H159v14.375h-11.5Zm14.375 0V85h5.75v20.125h-5.75Zm-8.625-2.875h2.875v-8.625h-2.875v8.625Zm17.25 2.875V85h17.25v2.875h2.875v5.75h-2.875V96.5h2.875v5.75h-2.875v2.875H170.5Zm5.75-11.5h8.625v-5.75h-8.625v5.75Zm0 8.625h8.625V96.5h-8.625v5.75Zm17.25 2.875V90.75h2.875v-2.875h2.875V85h8.625v2.875h2.875v2.875h2.875v14.375h-5.75v-5.75h-8.625v5.75h-5.75Zm5.75-8.625h8.625v-5.75H205v-2.875h-2.875v2.875h-2.875v5.75Zm17.25 8.625V85h2.875v8.625h2.875v-5.75h2.875V85h8.625v2.875h2.875v14.375h-2.875v2.875h-8.625v-2.875h-2.875V96.5h-2.875v8.625H216.5Zm11.5-2.875h2.875V87.875H228v14.375Zm28.75 5.75v-2.875H239.5V85h5.75v17.25h2.875V85H251v17.25h2.875V85h5.75v17.25h2.875V108h-5.75Zm5.75-2.875V85h5.75v11.5h2.875v-2.875H274V90.75h2.875V85h5.75v20.125h-5.75V96.5H274v2.875h-2.875v2.875h-2.875v2.875h-5.75Zm25.875-17.25V85h14.375v2.875h-14.375Zm-2.875 17.25V90.75h5.75v8.625h2.875V96.5H297v-2.875h2.875V90.75h5.75v14.375h-5.75v-5.75H297v2.875h-2.875v2.875H285.5Zm54.625 0v-17.25h-5.75V85h17.25v2.875h-5.75v17.25h-5.75Zm14.375 0V85h20.125v2.875H360.25v5.75h11.5V96.5h-11.5v5.75h14.375v2.875H354.5Zm25.875 0V85h17.25v5.75h-2.875v-2.875h-8.625v17.25h-5.75ZM33 56.875V48.75h-8.125v-8.125H16.75V32.5H8.625v-8.125h8.125V16.25h8.125V8.125H33V0h16.25v8.125h-8.125v8.125H33v8.125h-8.125V32.5H33v8.125h8.125v8.125h8.125v8.125H33ZM122.375 0v8.125h-8.125V0h8.125Zm-16.25 8.125h8.125v8.125h-8.125V8.125ZM98 16.25h8.125v8.125H98V16.25Zm-8.125 8.125H98V32.5h-8.125v-8.125ZM81.75 32.5h8.125v8.125H81.75V32.5Zm-8.125 8.125h8.125v8.125h-8.125v-8.125ZM65.5 48.75h8.125v8.125H65.5V48.75Zm65 8.125V0h16.25v24.375h24.375V0h16.25v56.875h-16.25V32.5H146.75v24.375H130.5Zm89.375 0V8.125h-16.25V0h48.75v8.125h-16.25v48.75h-16.25Zm40.625 0V0h16.25v8.125h8.125v8.125H293V8.125h8.125V0h16.25v56.875h-16.25v-32.5H293v16.25h-8.125v-16.25h-8.125v32.5H260.5Zm73.125 0V0h16.25v48.75h32.5v8.125h-48.75Zm65 0V48.75h8.125v-8.125h8.125V32.5H423v-8.125h-8.125V16.25h-8.125V8.125h-8.125V0h16.25v8.125H423v8.125h8.125v8.125h8.125V32.5h-8.125v8.125H423v8.125h-8.125v8.125h-16.25Z"/></svg>